<?xml version="1.0" encoding="UTF-8"?>
<svg id="Layer_2" data-name="Layer 2" xmlns="http://www.w3.org/2000/svg" viewBox="0 0 451.72 769.47">
  <defs>
    <style>
      .cls-1 {
        fill: #f8333c;
      }

      .cls-1, .cls-2 {
        stroke-width: 0px;
      }

      .cls-2 {
        fill: #262626;
      }
    </style>
  </defs>
  <g id="logo">
    <path class="cls-2" d="M332.83,387.92l106.97,185.27-106.97,185.27H118.89L11.93,573.19l106.97-185.27h213.93M336.29,376.92H115.43c-1.79,0-3.44.95-4.33,2.5L.67,570.69c-.89,1.55-.89,3.45,0,5l110.43,191.27c.89,1.55,2.54,2.5,4.33,2.5h220.86c1.79,0,3.44-.95,4.33-2.5l110.43-191.27c.89-1.55.89-3.45,0-5l-110.43-191.27c-.89-1.55-2.54-2.5-4.33-2.5h0Z"/>
    <path class="cls-1" d="M332.83,199.46l106.97,185.27-106.97,185.27H118.89L11.93,384.73l106.97-185.27h213.93M336.29,188.46H115.43c-1.79,0-3.44.95-4.33,2.5L.67,382.23c-.89,1.55-.89,3.45,0,5l110.43,191.27c.89,1.55,2.54,2.5,4.33,2.5h220.86c1.79,0,3.44-.95,4.33-2.5l110.43-191.27c.89-1.55.89-3.45,0-5l-110.43-191.27c-.89-1.55-2.54-2.5-4.33-2.5h0Z"/>
    <path class="cls-2" d="M332.83,11l106.97,185.27-106.97,185.27H118.89L11.93,196.27,118.89,11h213.93M336.29,0H115.43c-1.79,0-3.44.95-4.33,2.5L.67,193.77c-.89,1.55-.89,3.45,0,5l110.43,191.27c.89,1.55,2.54,2.5,4.33,2.5h220.86c1.79,0,3.44-.95,4.33-2.5l110.43-191.27c.89-1.55.89-3.45,0-5L340.62,2.5c-.89-1.55-2.54-2.5-4.33-2.5h0Z"/>
  </g>
</svg>